<?xml version="1.0" standalone="no"?>
<!DOCTYPE svg PUBLIC "-//W3C//DTD SVG 1.1//EN" "http://www.w3.org/Graphics/SVG/1.1/DTD/svg11.dtd" >
<svg xmlns="http://www.w3.org/2000/svg">
<metadata>Generated by IcoMoon</metadata>
<defs>
<font id="ageras-punch-font" horiz-adv-x="1024">
<font-face units-per-em="1024" ascent="960" descent="-64" />
<missing-glyph horiz-adv-x="1024" />
<glyph unicode="&#x20;" horiz-adv-x="512" d="" />
<glyph unicode="&#xe900;" glyph-name="punch" d="M12.208 588.656l87.152 87.184c0 0 76.128-54.64 163.168 32.4 87.024 87.024 23.952 157.664 23.952 157.664l82.272 82.256 642.48-642.496-84.48-84.528c0 0-46.688 51.936-143.808-45.2-97.088-97.088-48.928-147.504-48.928-147.504l-80.768-80.8-641.040 641.024z" />
<glyph unicode="&#xe901;" glyph-name="task" horiz-adv-x="1344" d="M58.435 960h1227.13c32.273 0 58.435-26.162 58.435-58.435v0c0-32.273-26.162-58.435-58.435-58.435h-1227.13c-32.273 0-58.435 26.162-58.435 58.435v0c0 32.273 26.162 58.435 58.435 58.435zM58.435 667.826h1227.13c32.273 0 58.435-26.162 58.435-58.435v0c0-32.273-26.162-58.435-58.435-58.435h-1227.13c-32.273 0-58.435 26.162-58.435 58.435v0c0 32.273 26.162 58.435 58.435 58.435zM58.435 375.652h1227.13c32.273 0 58.435-26.162 58.435-58.435v0c0-32.273-26.162-58.435-58.435-58.435h-1227.13c-32.273 0-58.435 26.162-58.435 58.435v0c0 32.273 26.162 58.435 58.435 58.435zM58.435 83.478h876.522c32.273 0 58.435-26.162 58.435-58.435v0c0-32.273-26.162-58.435-58.435-58.435h-876.522c-32.273 0-58.435 26.162-58.435 58.435v0c0 32.273 26.162 58.435 58.435 58.435z" />
<glyph unicode="&#xe902;" glyph-name="arrow-down" horiz-adv-x="1707" d="M43.272 899.66c33.325 33.325 87.355 33.325 120.68 0l724.077-724.077c33.325-33.325 33.325-87.355 0-120.68s-87.355-33.325-120.68 0l-724.077 724.077c-33.325 33.325-33.325 87.355 0 120.68zM1621.888 899.66c33.325-33.325 33.325-87.355 0-120.68l-724.077-724.077c-33.325-33.325-87.355-33.325-120.68 0s-33.325 87.355 0 120.68l724.077 724.077c33.325 33.325 87.355 33.325 120.68 0z" />
<glyph unicode="&#xe903;" glyph-name="star" d="M270.735-18.954c-57.426-30.198-95.089-2.826-84.132 61.112l46.080 268.667-195.185 190.259c-46.459 45.292-32.072 89.559 32.123 98.888l269.752 39.209 120.637 244.429c28.713 58.184 75.264 58.184 103.977 0l120.627-244.429 269.752-39.209c64.205-9.329 78.582-53.596 32.133-98.888l-195.185-190.269 46.090-268.667c10.957-63.939-26.706-91.3-84.132-61.112l-241.275 126.843-241.265-126.833z" />
<glyph unicode="&#xe904;" glyph-name="lock-open" horiz-adv-x="658" d="M603.429 512c30.286 0 54.857-24.571 54.857-54.857v-329.143c0-30.286-24.571-54.857-54.857-54.857h-548.571c-30.286 0-54.857 24.571-54.857 54.857v329.143c0 30.286 24.571 54.857 54.857 54.857h18.286v182.857c0 141.143 114.857 256 256 256s256-114.857 256-256c0-20-16.571-36.571-36.571-36.571h-36.571c-20 0-36.571 16.571-36.571 36.571 0 80.571-65.714 146.286-146.286 146.286s-146.286-65.714-146.286-146.286v-182.857h420.571z" />
<glyph unicode="&#xe905;" glyph-name="burger" horiz-adv-x="1451" d="M102.4 960h1220.378c56.554 0 102.4-45.846 102.4-102.4s-45.846-102.4-102.4-102.4h-1220.378c-56.554 0-102.4 45.846-102.4 102.4s45.846 102.4 102.4 102.4zM102.4 550.4h1220.378c56.554 0 102.4-45.846 102.4-102.4s-45.846-102.4-102.4-102.4h-1220.378c-56.554 0-102.4 45.846-102.4 102.4s45.846 102.4 102.4 102.4zM102.4 140.8h1220.378c56.554 0 102.4-45.846 102.4-102.4s-45.846-102.4-102.4-102.4h-1220.378c-56.554 0-102.4 45.846-102.4 102.4s45.846 102.4 102.4 102.4z" />
<glyph unicode="&#xe906;" glyph-name="magnify" horiz-adv-x="967" d="M745.82 252.844l187.776-187.776c24.79-24.79 24.79-64.984 0-89.774s-64.984-24.79-89.774 0l-187.776 187.776c-68.238-49.938-152.389-79.42-243.426-79.42-227.884 0-412.62 184.736-412.62 412.62s184.736 412.62 412.62 412.62c227.884 0 412.62-184.736 412.62-412.62 0-91.037-29.482-175.188-79.42-243.426v0zM412.615 189.458c169.45 0 306.817 137.366 306.817 306.817s-137.366 306.817-306.817 306.817c-169.45 0-306.817-137.366-306.817-306.817s137.366-306.817 306.817-306.817z" />
<glyph unicode="&#xe907;" glyph-name="filter" d="M968.348 848.696h-487.513c-22.261 64.557-84.591 111.304-158.052 111.304s-133.565-46.748-158.052-111.304h-109.078c-31.165 0-55.652-24.487-55.652-55.652s24.487-55.652 55.652-55.652h109.078c22.261-64.557 84.591-111.304 158.052-111.304s133.565 46.748 158.052 111.304h487.513c31.165 0 55.652 24.487 55.652 55.652s-24.487 55.652-55.652 55.652zM322.783 737.391c-31.165 0-55.652 24.487-55.652 55.652s24.487 55.652 55.652 55.652c31.165 0 55.652-24.487 55.652-55.652s-24.487-55.652-55.652-55.652zM0 448c0-31.165 24.487-55.652 55.652-55.652h487.513c22.261-64.557 84.591-111.304 158.052-111.304s133.565 46.748 158.052 111.304h109.078c31.165 0 55.652 24.487 55.652 55.652s-24.487 55.652-55.652 55.652h-109.078c-22.261 64.557-84.591 111.304-158.052 111.304s-133.565-46.748-158.052-111.304h-487.513c-31.165 0-55.652-24.487-55.652-55.652zM645.565 448c0 31.165 24.487 55.652 55.652 55.652s55.652-24.487 55.652-55.652c0-31.165-24.487-55.652-55.652-55.652s-55.652 24.487-55.652 55.652zM968.348 158.609h-487.513c-22.261 64.557-84.591 111.304-158.052 111.304s-133.565-46.748-158.052-111.304h-109.078c-31.165 0-55.652-24.487-55.652-55.652s24.487-55.652 55.652-55.652h109.078c22.261-64.557 84.591-111.304 158.052-111.304s133.565 46.748 158.052 111.304h487.513c31.165 0 55.652 24.487 55.652 55.652s-24.487 55.652-55.652 55.652zM322.783 47.304c-31.165 0-55.652 24.487-55.652 55.652s24.487 55.652 55.652 55.652c31.165 0 55.652-24.487 55.652-55.652s-24.487-55.652-55.652-55.652z" />
<glyph unicode="&#xe908;" glyph-name="exclamation" horiz-adv-x="223" d="M205.913 860.295l-22.261-536.253c-2.783-43.116-38.957-75.453-80.696-72.758s-75.13 35.032-75.13 72.758l-22.261 536.253c-2.783 53.895 41.739 99.705 97.391 99.705s102.957-40.421 102.957-94.316c0 0 0-2.695 0-5.389zM211.478 49.179c0-56.554-47.341-102.4-105.739-102.4s-105.739 45.846-105.739 102.4c0 56.554 47.341 102.4 105.739 102.4s105.739-45.846 105.739-102.4z" />
<glyph unicode="&#xe909;" glyph-name="bell" horiz-adv-x="916" d="M316.092 75.004c18.141-60.776 74.099-105.32 140.976-105.32s122.834 44.62 140.915 105.32c201.703 19.271 304.893 47.063 304.893 92.188 0 35.855-110.52 129.615-110.52 375.347 0 152.567-102.822 281.052-243.169 320.908-5.214 46.040-44.395 62.868-91.98 62.868-47.631 0-86.828-16.889-92.026-62.868-140.363-39.841-243.123-168.372-243.123-320.908 0-245.732-110.597-339.492-110.597-375.347-0.123-45.124 102.991-72.932 304.633-92.188z" />
<glyph unicode="&#xe90a;" glyph-name="refill" horiz-adv-x="967" d="M844.238 815.72c-89.73 83.845-209.339 135.137-340.534 135.137-277.742 0-503.704-229.683-503.704-512s225.961-512 503.704-512c138.649 0 264.374 57.242 355.544 149.688l-99.683 101.325c-65.633-66.478-156.108-107.653-255.861-107.653-199.98 0-362.667 165.366-362.667 368.64s162.686 368.64 362.667 368.64c92.319 0 176.629-35.297 240.72-93.235l-119.831-121.805h342.519v348.16l-122.873-124.897z" />
<glyph unicode="&#xe90b;" glyph-name="file" horiz-adv-x="819" d="M102.4 950.857c-56.832 0-102.4-45.568-102.4-102.4v-819.2c0-56.554 45.846-102.4 102.4-102.4h614.4c56.554 0 102.4 45.846 102.4 102.4v614.4l-307.2 307.2h-409.6z" />
<glyph unicode="&#xe90c;" glyph-name="certifications" horiz-adv-x="768" d="M153.6 950.857h460.8c84.831 0 153.6-68.769 153.6-153.6v-716.8c0-84.831-68.769-153.6-153.6-153.6h-460.8c-84.831 0-153.6 68.769-153.6 153.6v716.8c0 84.831 68.769 153.6 153.6 153.6v0zM542.086 671.791l-23.113 20.873c-3.493 3.149-8.87 2.875-12.023-0.614l-175.786-194.639-91.272 82.432c-3.482 3.147-8.868 2.877-12.023-0.614l-20.875-23.111c-1.512-1.675-2.299-3.884-2.182-6.139 0.114-2.255 1.119-4.37 2.796-5.885l120.522-108.848c1.155-1.042 2.6-1.7 4.127-1.968 0.624-0.146 1.265-0.218 1.914-0.218 0.139 0 0.281 0.002 0.42 0.010 2.259 0.11 4.383 1.117 5.897 2.796l202.213 223.901c1.512 1.675 2.299 3.884 2.182 6.139-0.114 2.253-1.119 4.37-2.796 5.885zM542.086 364.591l-23.113 20.873c-3.493 3.149-8.87 2.875-12.023-0.614l-175.786-194.639-91.272 82.432c-3.482 3.147-8.868 2.877-12.023-0.614l-20.875-23.111c-1.512-1.675-2.299-3.884-2.182-6.139 0.114-2.255 1.119-4.37 2.796-5.885l120.522-108.848c1.155-1.042 2.6-1.7 4.127-1.968 0.624-0.146 1.265-0.218 1.914-0.218 0.139 0 0.281 0.002 0.42 0.010 2.259 0.11 4.383 1.117 5.897 2.796l202.213 223.901c1.512 1.675 2.299 3.884 2.182 6.139-0.114 2.253-1.119 4.37-2.796 5.885z" />
<glyph unicode="&#xe90d;" glyph-name="pin" horiz-adv-x="768" d="M61.336 358.554l1.921-2.775c2.348-3.522 4.803-6.938 7.258-10.674l278.162-399.63c8.122-11.664 21.437-18.617 35.651-18.617s27.528 6.953 35.651 18.617l277.521 399.31c2.668 3.736 5.23 7.365 7.792 10.674l1.708 2.562c103.863 160.704 73.662 373.337-70.84 498.765s-359.269 125.428-503.771 0c-144.502-125.428-174.702-338.062-70.84-498.765l-0.213 0.534zM384.328 726.483c88.425 0 160.108-71.683 160.108-160.108s-71.683-160.108-160.108-160.108c-88.425 0-160.108 71.683-160.108 160.108s71.683 160.108 160.108 160.108v0z" />
<glyph unicode="&#xe90e;" glyph-name="credit-card" horiz-adv-x="1514" d="M0-3.325c0-38.563 31.255-69.818 69.818-69.818h1349.818c38.563 0 69.818 31.255 69.818 69.818v535.273h-1489.455v-535.273zM139.636 275.948h698.182v-69.818h-698.182v69.818zM139.636 136.312h279.273v-69.818h-279.273v69.818zM1419.636 950.857h-1349.818c-38.563 0-69.818-31.255-69.818-69.818v-209.455h1489.455v209.455c0 38.563-31.255 69.818-69.818 69.818z" />
<glyph unicode="&#xe90f;" glyph-name="house" d="M677.253-73.143h133.393c23.575 0 42.686 19.111 42.686 42.686v485.977h120.8c11.603-0.018 22.039 7.053 26.324 17.836s1.548 23.088-6.902 31.039l-461.219 434.113c-17.47 16.466-44.745 16.466-62.214 0l-461.219-434.007c-8.45-7.951-11.187-20.257-6.902-31.039s14.721-17.854 26.324-17.836h120.694v-486.083c0-23.575 19.111-42.686 42.686-42.686h133.393c12.736 0 24.95 5.059 33.956 14.065s14.065 21.22 14.065 33.956v272.121c0 17.681 14.333 32.014 32.014 32.014h192.086c17.681 0 32.014-14.333 32.014-32.014v-272.121c0-12.736 5.059-24.95 14.065-33.956s21.22-14.065 33.956-14.065z" />
<glyph unicode="&#xe910;" glyph-name="attachment" horiz-adv-x="604" d="M247.052 907.487c-78.222 0-142.026-63.804-142.026-142.026v-470.462c0-102.81 83.599-186.409 186.409-186.409s186.409 83.599 186.409 186.409v470.462c0.136 9.604-4.91 18.537-13.205 23.378s-18.555 4.841-26.85 0c-8.295-4.841-13.341-13.774-13.205-23.378v-470.462c0-74.225-58.924-133.15-133.15-133.15s-133.15 58.924-133.15 133.15v470.462c0 49.637 39.129 88.766 88.766 88.766s88.766-39.129 88.766-88.766v-434.955c0-25.049-19.334-44.383-44.383-44.383s-44.383 19.334-44.383 44.383v346.189c0.136 9.604-4.91 18.537-13.205 23.378s-18.555 4.841-26.85 0c-8.295-4.841-13.341-13.774-13.205-23.378v-346.189c0-53.634 44.009-97.643 97.643-97.643s97.643 44.009 97.643 97.643v434.955c0 78.222-63.804 142.026-142.026 142.026z" />
<glyph unicode="&#xe911;" glyph-name="add" d="M505.171 960v0c27.9 0 50.517-22.617 50.517-50.517v-858.79c0-27.9-22.617-50.517-50.517-50.517v0c-27.9 0-50.517 22.617-50.517 50.517v858.79c0 27.9 22.617 50.517 50.517 50.517zM985.083 480.088v0c0-27.9-22.617-50.517-50.517-50.517h-858.79c-27.9 0-50.517 22.617-50.517 50.517v0c0 27.9 22.617 50.517 50.517 50.517h858.79c27.9 0 50.517-22.617 50.517-50.517z" />
<glyph unicode="&#xe912;" glyph-name="remove" horiz-adv-x="1138" d="M1023.297 905.486v0c26.304-26.304 26.304-68.952 0-95.256l-809.675-809.675c-26.304-26.304-68.952-26.304-95.256 0v0c-26.304 26.304-26.304 68.952 0 95.256l809.675 809.675c26.304 26.304 68.952 26.304 95.256 0zM1023.297 0.555v0c-26.304-26.304-68.952-26.304-95.256 0l-809.675 809.675c-26.304 26.304-26.304 68.952 0 95.256v0c26.304 26.304 68.952 26.304 95.256 0l809.675-809.675c26.304-26.304 26.304-68.952 0-95.256z" />
<glyph unicode="&#xe971;" glyph-name="user" d="M576 253.388v52.78c70.498 39.728 128 138.772 128 237.832 0 159.058 0 288-192 288s-192-128.942-192-288c0-99.060 57.502-198.104 128-237.832v-52.78c-217.102-17.748-384-124.42-384-253.388h896c0 128.968-166.898 235.64-384 253.388z" />
<glyph unicode="&#xea0f;" glyph-name="cross" d="M1014.662 137.34c-0.004 0.004-0.008 0.008-0.012 0.010l-310.644 310.65 310.644 310.65c0.004 0.004 0.008 0.006 0.012 0.010 3.344 3.346 5.762 7.254 7.312 11.416 4.246 11.376 1.824 24.682-7.324 33.83l-146.746 146.746c-9.148 9.146-22.45 11.566-33.828 7.32-4.16-1.55-8.070-3.968-11.418-7.31 0-0.004-0.004-0.006-0.008-0.010l-310.648-310.652-310.648 310.65c-0.004 0.004-0.006 0.006-0.010 0.010-3.346 3.342-7.254 5.76-11.414 7.31-11.38 4.248-24.682 1.826-33.83-7.32l-146.748-146.748c-9.148-9.148-11.568-22.452-7.322-33.828 1.552-4.16 3.97-8.072 7.312-11.416 0.004-0.002 0.006-0.006 0.010-0.010l310.65-310.648-310.65-310.652c-0.002-0.004-0.006-0.006-0.008-0.010-3.342-3.346-5.76-7.254-7.314-11.414-4.248-11.376-1.826-24.682 7.322-33.83l146.748-146.746c9.15-9.148 22.452-11.568 33.83-7.322 4.16 1.552 8.070 3.97 11.416 7.312 0.002 0.004 0.006 0.006 0.010 0.010l310.648 310.65 310.648-310.65c0.004-0.002 0.008-0.006 0.012-0.008 3.348-3.344 7.254-5.762 11.414-7.314 11.378-4.246 24.684-1.826 33.828 7.322l146.746 146.748c9.148 9.148 11.57 22.454 7.324 33.83-1.552 4.16-3.97 8.068-7.314 11.414z" />
<glyph unicode="&#xea10;" glyph-name="checkmark" d="M864 832l-480-480-224 224-160-160 384-384 640 640z" />
<glyph unicode="&#xeadf;" glyph-name="file-pdf" d="M842.012 370.52c-13.648 13.446-43.914 20.566-89.972 21.172-31.178 0.344-68.702-2.402-108.17-7.928-17.674 10.198-35.892 21.294-50.188 34.658-38.462 35.916-70.568 85.772-90.576 140.594 1.304 5.12 2.414 9.62 3.448 14.212 0 0 21.666 123.060 15.932 164.666-0.792 5.706-1.276 7.362-2.808 11.796l-1.882 4.834c-5.894 13.592-17.448 27.994-35.564 27.208l-10.916 0.344c-20.202 0-36.664-10.332-40.986-25.774-13.138-48.434 0.418-120.892 24.98-214.738l-6.288-15.286c-17.588-42.876-39.63-86.060-59.078-124.158l-2.528-4.954c-20.46-40.040-39.026-74.028-55.856-102.822l-17.376-9.188c-1.264-0.668-31.044-16.418-38.028-20.644-59.256-35.38-98.524-75.542-105.038-107.416-2.072-10.17-0.53-23.186 10.014-29.212l16.806-8.458c7.292-3.652 14.978-5.502 22.854-5.502 42.206 0 91.202 52.572 158.698 170.366 77.93 25.37 166.652 46.458 244.412 58.090 59.258-33.368 132.142-56.544 178.142-56.544 8.168 0 15.212 0.78 20.932 2.294 8.822 2.336 16.258 7.368 20.792 14.194 8.926 13.432 10.734 31.932 8.312 50.876-0.72 5.622-5.21 12.574-10.068 17.32zM211.646 145.952c7.698 21.042 38.16 62.644 83.206 99.556 2.832 2.296 9.808 8.832 16.194 14.902-47.104-75.124-78.648-105.066-99.4-114.458zM478.434 760.314c13.566 0 21.284-34.194 21.924-66.254s-6.858-54.56-16.158-71.208c-7.702 24.648-11.426 63.5-11.426 88.904 0 0-0.566 48.558 5.66 48.558v0zM398.852 322.506c9.45 16.916 19.282 34.756 29.33 53.678 24.492 46.316 39.958 82.556 51.478 112.346 22.91-41.684 51.444-77.12 84.984-105.512 4.186-3.542 8.62-7.102 13.276-10.65-68.21-13.496-127.164-29.91-179.068-49.862v0zM828.902 326.348c-4.152-2.598-16.052-4.1-23.708-4.1-24.708 0-55.272 11.294-98.126 29.666 16.468 1.218 31.562 1.838 45.102 1.838 24.782 0 32.12 0.108 56.35-6.072 24.228-6.18 24.538-18.734 20.382-21.332v0zM917.806 730.924c-22.21 30.292-53.174 65.7-87.178 99.704s-69.412 64.964-99.704 87.178c-51.574 37.82-76.592 42.194-90.924 42.194h-496c-44.112 0-80-35.888-80-80v-864c0-44.112 35.886-80 80-80h736c44.112 0 80 35.888 80 80v624c0 14.332-4.372 39.35-42.194 90.924v0zM785.374 785.374c30.7-30.7 54.8-58.398 72.58-81.374h-153.954v153.946c22.982-17.78 50.678-41.878 81.374-72.572v0zM896 16c0-8.672-7.328-16-16-16h-736c-8.672 0-16 7.328-16 16v864c0 8.672 7.328 16 16 16 0 0 495.956 0.002 496 0v-224c0-17.672 14.324-32 32-32h224v-624z" />
<glyph unicode="" glyph-name="file-pdf" d="M842.012 370.52c-13.648 13.446-43.914 20.566-89.972 21.172-31.178 0.344-68.702-2.402-108.17-7.928-17.674 10.198-35.892 21.294-50.188 34.658-38.462 35.916-70.568 85.772-90.576 140.594 1.304 5.12 2.414 9.62 3.448 14.212 0 0 21.666 123.060 15.932 164.666-0.792 5.706-1.276 7.362-2.808 11.796l-1.882 4.834c-5.894 13.592-17.448 27.994-35.564 27.208l-10.916 0.344c-20.202 0-36.664-10.332-40.986-25.774-13.138-48.434 0.418-120.892 24.98-214.738l-6.288-15.286c-17.588-42.876-39.63-86.060-59.078-124.158l-2.528-4.954c-20.46-40.040-39.026-74.028-55.856-102.822l-17.376-9.188c-1.264-0.668-31.044-16.418-38.028-20.644-59.256-35.38-98.524-75.542-105.038-107.416-2.072-10.17-0.53-23.186 10.014-29.212l16.806-8.458c7.292-3.652 14.978-5.502 22.854-5.502 42.206 0 91.202 52.572 158.698 170.366 77.93 25.37 166.652 46.458 244.412 58.090 59.258-33.368 132.142-56.544 178.142-56.544 8.168 0 15.212 0.78 20.932 2.294 8.822 2.336 16.258 7.368 20.792 14.194 8.926 13.432 10.734 31.932 8.312 50.876-0.72 5.622-5.21 12.574-10.068 17.32zM211.646 145.952c7.698 21.042 38.16 62.644 83.206 99.556 2.832 2.296 9.808 8.832 16.194 14.902-47.104-75.124-78.648-105.066-99.4-114.458zM478.434 760.314c13.566 0 21.284-34.194 21.924-66.254s-6.858-54.56-16.158-71.208c-7.702 24.648-11.426 63.5-11.426 88.904 0 0-0.566 48.558 5.66 48.558v0zM398.852 322.506c9.45 16.916 19.282 34.756 29.33 53.678 24.492 46.316 39.958 82.556 51.478 112.346 22.91-41.684 51.444-77.12 84.984-105.512 4.186-3.542 8.62-7.102 13.276-10.65-68.21-13.496-127.164-29.91-179.068-49.862v0zM828.902 326.348c-4.152-2.598-16.052-4.1-23.708-4.1-24.708 0-55.272 11.294-98.126 29.666 16.468 1.218 31.562 1.838 45.102 1.838 24.782 0 32.12 0.108 56.35-6.072 24.228-6.18 24.538-18.734 20.382-21.332v0zM917.806 730.924c-22.21 30.292-53.174 65.7-87.178 99.704s-69.412 64.964-99.704 87.178c-51.574 37.82-76.592 42.194-90.924 42.194h-496c-44.112 0-80-35.888-80-80v-864c0-44.112 35.886-80 80-80h736c44.112 0 80 35.888 80 80v624c0 14.332-4.372 39.35-42.194 90.924v0zM785.374 785.374c30.7-30.7 54.8-58.398 72.58-81.374h-153.954v153.946c22.982-17.78 50.678-41.878 81.374-72.572v0zM896 16c0-8.672-7.328-16-16-16h-736c-8.672 0-16 7.328-16 16v864c0 8.672 7.328 16 16 16 0 0 495.956 0.002 496 0v-224c0-17.672 14.324-32 32-32h224v-624z" />
<glyph unicode="user" glyph-name="user" d="M576 253.388v52.78c70.498 39.728 128 138.772 128 237.832 0 159.058 0 288-192 288s-192-128.942-192-288c0-99.060 57.502-198.104 128-237.832v-52.78c-217.102-17.748-384-124.42-384-253.388h896c0 128.968-166.898 235.64-384 253.388z" />
<glyph unicode="tick" glyph-name="checkmark" d="M864 832l-480-480-224 224-160-160 384-384 640 640z" />
<glyph unicode="profile2" glyph-name="user" d="M576 253.388v52.78c70.498 39.728 128 138.772 128 237.832 0 159.058 0 288-192 288s-192-128.942-192-288c0-99.060 57.502-198.104 128-237.832v-52.78c-217.102-17.748-384-124.42-384-253.388h896c0 128.968-166.898 235.64-384 253.388z" />
<glyph unicode="file10" glyph-name="file-pdf" d="M842.012 370.52c-13.648 13.446-43.914 20.566-89.972 21.172-31.178 0.344-68.702-2.402-108.17-7.928-17.674 10.198-35.892 21.294-50.188 34.658-38.462 35.916-70.568 85.772-90.576 140.594 1.304 5.12 2.414 9.62 3.448 14.212 0 0 21.666 123.060 15.932 164.666-0.792 5.706-1.276 7.362-2.808 11.796l-1.882 4.834c-5.894 13.592-17.448 27.994-35.564 27.208l-10.916 0.344c-20.202 0-36.664-10.332-40.986-25.774-13.138-48.434 0.418-120.892 24.98-214.738l-6.288-15.286c-17.588-42.876-39.63-86.060-59.078-124.158l-2.528-4.954c-20.46-40.040-39.026-74.028-55.856-102.822l-17.376-9.188c-1.264-0.668-31.044-16.418-38.028-20.644-59.256-35.38-98.524-75.542-105.038-107.416-2.072-10.17-0.53-23.186 10.014-29.212l16.806-8.458c7.292-3.652 14.978-5.502 22.854-5.502 42.206 0 91.202 52.572 158.698 170.366 77.93 25.37 166.652 46.458 244.412 58.090 59.258-33.368 132.142-56.544 178.142-56.544 8.168 0 15.212 0.78 20.932 2.294 8.822 2.336 16.258 7.368 20.792 14.194 8.926 13.432 10.734 31.932 8.312 50.876-0.72 5.622-5.21 12.574-10.068 17.32zM211.646 145.952c7.698 21.042 38.16 62.644 83.206 99.556 2.832 2.296 9.808 8.832 16.194 14.902-47.104-75.124-78.648-105.066-99.4-114.458zM478.434 760.314c13.566 0 21.284-34.194 21.924-66.254s-6.858-54.56-16.158-71.208c-7.702 24.648-11.426 63.5-11.426 88.904 0 0-0.566 48.558 5.66 48.558v0zM398.852 322.506c9.45 16.916 19.282 34.756 29.33 53.678 24.492 46.316 39.958 82.556 51.478 112.346 22.91-41.684 51.444-77.12 84.984-105.512 4.186-3.542 8.62-7.102 13.276-10.65-68.21-13.496-127.164-29.91-179.068-49.862v0zM828.902 326.348c-4.152-2.598-16.052-4.1-23.708-4.1-24.708 0-55.272 11.294-98.126 29.666 16.468 1.218 31.562 1.838 45.102 1.838 24.782 0 32.12 0.108 56.35-6.072 24.228-6.18 24.538-18.734 20.382-21.332v0zM917.806 730.924c-22.21 30.292-53.174 65.7-87.178 99.704s-69.412 64.964-99.704 87.178c-51.574 37.82-76.592 42.194-90.924 42.194h-496c-44.112 0-80-35.888-80-80v-864c0-44.112 35.886-80 80-80h736c44.112 0 80 35.888 80 80v624c0 14.332-4.372 39.35-42.194 90.924v0zM785.374 785.374c30.7-30.7 54.8-58.398 72.58-81.374h-153.954v153.946c22.982-17.78 50.678-41.878 81.374-72.572v0zM896 16c0-8.672-7.328-16-16-16h-736c-8.672 0-16 7.328-16 16v864c0 8.672 7.328 16 16 16 0 0 495.956 0.002 496 0v-224c0-17.672 14.324-32 32-32h224v-624z" />
<glyph unicode="file-pdf" glyph-name="file-pdf" d="M842.012 370.52c-13.648 13.446-43.914 20.566-89.972 21.172-31.178 0.344-68.702-2.402-108.17-7.928-17.674 10.198-35.892 21.294-50.188 34.658-38.462 35.916-70.568 85.772-90.576 140.594 1.304 5.12 2.414 9.62 3.448 14.212 0 0 21.666 123.060 15.932 164.666-0.792 5.706-1.276 7.362-2.808 11.796l-1.882 4.834c-5.894 13.592-17.448 27.994-35.564 27.208l-10.916 0.344c-20.202 0-36.664-10.332-40.986-25.774-13.138-48.434 0.418-120.892 24.98-214.738l-6.288-15.286c-17.588-42.876-39.63-86.060-59.078-124.158l-2.528-4.954c-20.46-40.040-39.026-74.028-55.856-102.822l-17.376-9.188c-1.264-0.668-31.044-16.418-38.028-20.644-59.256-35.38-98.524-75.542-105.038-107.416-2.072-10.17-0.53-23.186 10.014-29.212l16.806-8.458c7.292-3.652 14.978-5.502 22.854-5.502 42.206 0 91.202 52.572 158.698 170.366 77.93 25.37 166.652 46.458 244.412 58.090 59.258-33.368 132.142-56.544 178.142-56.544 8.168 0 15.212 0.78 20.932 2.294 8.822 2.336 16.258 7.368 20.792 14.194 8.926 13.432 10.734 31.932 8.312 50.876-0.72 5.622-5.21 12.574-10.068 17.32zM211.646 145.952c7.698 21.042 38.16 62.644 83.206 99.556 2.832 2.296 9.808 8.832 16.194 14.902-47.104-75.124-78.648-105.066-99.4-114.458zM478.434 760.314c13.566 0 21.284-34.194 21.924-66.254s-6.858-54.56-16.158-71.208c-7.702 24.648-11.426 63.5-11.426 88.904 0 0-0.566 48.558 5.66 48.558v0zM398.852 322.506c9.45 16.916 19.282 34.756 29.33 53.678 24.492 46.316 39.958 82.556 51.478 112.346 22.91-41.684 51.444-77.12 84.984-105.512 4.186-3.542 8.62-7.102 13.276-10.65-68.21-13.496-127.164-29.91-179.068-49.862v0zM828.902 326.348c-4.152-2.598-16.052-4.1-23.708-4.1-24.708 0-55.272 11.294-98.126 29.666 16.468 1.218 31.562 1.838 45.102 1.838 24.782 0 32.12 0.108 56.35-6.072 24.228-6.18 24.538-18.734 20.382-21.332v0zM917.806 730.924c-22.21 30.292-53.174 65.7-87.178 99.704s-69.412 64.964-99.704 87.178c-51.574 37.82-76.592 42.194-90.924 42.194h-496c-44.112 0-80-35.888-80-80v-864c0-44.112 35.886-80 80-80h736c44.112 0 80 35.888 80 80v624c0 14.332-4.372 39.35-42.194 90.924v0zM785.374 785.374c30.7-30.7 54.8-58.398 72.58-81.374h-153.954v153.946c22.982-17.78 50.678-41.878 81.374-72.572v0zM896 16c0-8.672-7.328-16-16-16h-736c-8.672 0-16 7.328-16 16v864c0 8.672 7.328 16 16 16 0 0 495.956 0.002 496 0v-224c0-17.672 14.324-32 32-32h224v-624z" />
<glyph unicode="cross" glyph-name="cross" d="M1014.662 137.34c-0.004 0.004-0.008 0.008-0.012 0.010l-310.644 310.65 310.644 310.65c0.004 0.004 0.008 0.006 0.012 0.010 3.344 3.346 5.762 7.254 7.312 11.416 4.246 11.376 1.824 24.682-7.324 33.83l-146.746 146.746c-9.148 9.146-22.45 11.566-33.828 7.32-4.16-1.55-8.070-3.968-11.418-7.31 0-0.004-0.004-0.006-0.008-0.010l-310.648-310.652-310.648 310.65c-0.004 0.004-0.006 0.006-0.010 0.010-3.346 3.342-7.254 5.76-11.414 7.31-11.38 4.248-24.682 1.826-33.83-7.32l-146.748-146.748c-9.148-9.148-11.568-22.452-7.322-33.828 1.552-4.16 3.97-8.072 7.312-11.416 0.004-0.002 0.006-0.006 0.010-0.010l310.65-310.648-310.65-310.652c-0.002-0.004-0.006-0.006-0.008-0.010-3.342-3.346-5.76-7.254-7.314-11.414-4.248-11.376-1.826-24.682 7.322-33.83l146.748-146.746c9.15-9.148 22.452-11.568 33.83-7.322 4.16 1.552 8.070 3.97 11.416 7.312 0.002 0.004 0.006 0.006 0.010 0.010l310.648 310.65 310.648-310.65c0.004-0.002 0.008-0.006 0.012-0.008 3.348-3.344 7.254-5.762 11.414-7.314 11.378-4.246 24.684-1.826 33.828 7.322l146.746 146.748c9.148 9.148 11.57 22.454 7.324 33.83-1.552 4.16-3.97 8.068-7.314 11.414z" />
<glyph unicode="checkmark" glyph-name="checkmark" d="M864 832l-480-480-224 224-160-160 384-384 640 640z" />
<glyph unicode="cancel" glyph-name="cross" d="M1014.662 137.34c-0.004 0.004-0.008 0.008-0.012 0.010l-310.644 310.65 310.644 310.65c0.004 0.004 0.008 0.006 0.012 0.010 3.344 3.346 5.762 7.254 7.312 11.416 4.246 11.376 1.824 24.682-7.324 33.83l-146.746 146.746c-9.148 9.146-22.45 11.566-33.828 7.32-4.16-1.55-8.070-3.968-11.418-7.31 0-0.004-0.004-0.006-0.008-0.010l-310.648-310.652-310.648 310.65c-0.004 0.004-0.006 0.006-0.010 0.010-3.346 3.342-7.254 5.76-11.414 7.31-11.38 4.248-24.682 1.826-33.83-7.32l-146.748-146.748c-9.148-9.148-11.568-22.452-7.322-33.828 1.552-4.16 3.97-8.072 7.312-11.416 0.004-0.002 0.006-0.006 0.010-0.010l310.65-310.648-310.65-310.652c-0.002-0.004-0.006-0.006-0.008-0.010-3.342-3.346-5.76-7.254-7.314-11.414-4.248-11.376-1.826-24.682 7.322-33.83l146.748-146.746c9.15-9.148 22.452-11.568 33.83-7.322 4.16 1.552 8.070 3.97 11.416 7.312 0.002 0.004 0.006 0.006 0.010 0.010l310.648 310.65 310.648-310.65c0.004-0.002 0.008-0.006 0.012-0.008 3.348-3.344 7.254-5.762 11.414-7.314 11.378-4.246 24.684-1.826 33.828 7.322l146.746 146.748c9.148 9.148 11.57 22.454 7.324 33.83-1.552 4.16-3.97 8.068-7.314 11.414z" />
</font>
</defs>
</svg>
